<mxfile host="www.draw.io" modified="2019-10-29T09:50:47.294Z" agent="Mozilla/5.0 (Macintosh; Intel Mac OS X 10_13_6) AppleWebKit/537.36 (KHTML, like Gecko) Chrome/77.0.3865.90 Safari/537.36" etag="tp1f_DueZSnOTvS10yyn" version="12.1.8" type="github" pages="3">
  <diagram id="_RE_5iFHfkcYcvLPGnha" name="个人会员">
    <mxGraphModel dx="1172" dy="600" grid="1" gridSize="10" guides="1" tooltips="1" connect="1" arrows="1" fold="1" page="1" pageScale="1" pageWidth="827" pageHeight="1169" math="0" shadow="0">
      <root>
        <mxCell id="0"/>
        <mxCell id="1" parent="0"/>
        <mxCell id="LwwBDkgkIhJa3WMhhJVJ-3" style="edgeStyle=orthogonalEdgeStyle;rounded=0;orthogonalLoop=1;jettySize=auto;html=1;entryX=0.5;entryY=0;entryDx=0;entryDy=0;entryPerimeter=0;" parent="1" source="LwwBDkgkIhJa3WMhhJVJ-1" target="LwwBDkgkIhJa3WMhhJVJ-2" edge="1">
          <mxGeometry relative="1" as="geometry"/>
        </mxCell>
        <mxCell id="LwwBDkgkIhJa3WMhhJVJ-1" value="调用个人会员开户接口" style="rounded=1;whiteSpace=wrap;html=1;absoluteArcSize=1;arcSize=14;strokeWidth=2;" parent="1" vertex="1">
          <mxGeometry x="260" y="40" width="100" height="100" as="geometry"/>
        </mxCell>
        <mxCell id="LwwBDkgkIhJa3WMhhJVJ-5" style="edgeStyle=orthogonalEdgeStyle;rounded=0;orthogonalLoop=1;jettySize=auto;html=1;entryX=0;entryY=0.5;entryDx=0;entryDy=0;" parent="1" source="LwwBDkgkIhJa3WMhhJVJ-2" target="LwwBDkgkIhJa3WMhhJVJ-4" edge="1">
          <mxGeometry relative="1" as="geometry"/>
        </mxCell>
        <mxCell id="LwwBDkgkIhJa3WMhhJVJ-23" value="否" style="text;html=1;resizable=0;points=[];align=center;verticalAlign=middle;labelBackgroundColor=#ffffff;" parent="LwwBDkgkIhJa3WMhhJVJ-5" vertex="1" connectable="0">
          <mxGeometry x="-0.0909" y="1" relative="1" as="geometry">
            <mxPoint as="offset"/>
          </mxGeometry>
        </mxCell>
        <mxCell id="LwwBDkgkIhJa3WMhhJVJ-7" style="edgeStyle=orthogonalEdgeStyle;rounded=0;orthogonalLoop=1;jettySize=auto;html=1;" parent="1" source="LwwBDkgkIhJa3WMhhJVJ-2" target="LwwBDkgkIhJa3WMhhJVJ-6" edge="1">
          <mxGeometry relative="1" as="geometry"/>
        </mxCell>
        <mxCell id="LwwBDkgkIhJa3WMhhJVJ-24" value="是" style="text;html=1;resizable=0;points=[];align=center;verticalAlign=middle;labelBackgroundColor=#ffffff;" parent="LwwBDkgkIhJa3WMhhJVJ-7" vertex="1" connectable="0">
          <mxGeometry x="-0.0667" y="1" relative="1" as="geometry">
            <mxPoint as="offset"/>
          </mxGeometry>
        </mxCell>
        <mxCell id="LwwBDkgkIhJa3WMhhJVJ-2" value="是否配置手机号码无需验证" style="strokeWidth=2;html=1;shape=mxgraph.flowchart.decision;whiteSpace=wrap;" parent="1" vertex="1">
          <mxGeometry x="260" y="230" width="100" height="100" as="geometry"/>
        </mxCell>
        <mxCell id="LwwBDkgkIhJa3WMhhJVJ-11" style="edgeStyle=orthogonalEdgeStyle;rounded=0;orthogonalLoop=1;jettySize=auto;html=1;entryX=1;entryY=0.5;entryDx=0;entryDy=0;" parent="1" source="LwwBDkgkIhJa3WMhhJVJ-4" target="LwwBDkgkIhJa3WMhhJVJ-6" edge="1">
          <mxGeometry relative="1" as="geometry">
            <Array as="points">
              <mxPoint x="520" y="500"/>
            </Array>
          </mxGeometry>
        </mxCell>
        <mxCell id="LwwBDkgkIhJa3WMhhJVJ-4" value="调用会员开户认证接口" style="rounded=1;whiteSpace=wrap;html=1;absoluteArcSize=1;arcSize=14;strokeWidth=2;" parent="1" vertex="1">
          <mxGeometry x="470" y="230" width="100" height="100" as="geometry"/>
        </mxCell>
        <mxCell id="iAgpnSeQ38nsZxshlyUb-2" style="edgeStyle=orthogonalEdgeStyle;rounded=0;orthogonalLoop=1;jettySize=auto;html=1;entryX=0.5;entryY=0;entryDx=0;entryDy=0;entryPerimeter=0;" edge="1" parent="1" source="LwwBDkgkIhJa3WMhhJVJ-6" target="iAgpnSeQ38nsZxshlyUb-1">
          <mxGeometry relative="1" as="geometry"/>
        </mxCell>
        <mxCell id="LwwBDkgkIhJa3WMhhJVJ-6" value="调用绑定银行卡_个人接口" style="rounded=1;whiteSpace=wrap;html=1;absoluteArcSize=1;arcSize=14;strokeWidth=2;" parent="1" vertex="1">
          <mxGeometry x="260" y="450" width="100" height="100" as="geometry"/>
        </mxCell>
        <mxCell id="LwwBDkgkIhJa3WMhhJVJ-12" style="edgeStyle=orthogonalEdgeStyle;rounded=0;orthogonalLoop=1;jettySize=auto;html=1;" parent="1" source="LwwBDkgkIhJa3WMhhJVJ-8" target="LwwBDkgkIhJa3WMhhJVJ-10" edge="1">
          <mxGeometry relative="1" as="geometry">
            <Array as="points">
              <mxPoint x="520" y="790"/>
              <mxPoint x="310" y="790"/>
            </Array>
          </mxGeometry>
        </mxCell>
        <mxCell id="LwwBDkgkIhJa3WMhhJVJ-8" value="调用确认绑定银行卡_个人接口" style="rounded=1;whiteSpace=wrap;html=1;absoluteArcSize=1;arcSize=14;strokeWidth=2;" parent="1" vertex="1">
          <mxGeometry x="470" y="635" width="100" height="100" as="geometry"/>
        </mxCell>
        <mxCell id="LwwBDkgkIhJa3WMhhJVJ-14" value="" style="edgeStyle=orthogonalEdgeStyle;rounded=0;orthogonalLoop=1;jettySize=auto;html=1;" parent="1" source="LwwBDkgkIhJa3WMhhJVJ-10" edge="1">
          <mxGeometry relative="1" as="geometry">
            <mxPoint x="440" y="900" as="targetPoint"/>
          </mxGeometry>
        </mxCell>
        <mxCell id="LwwBDkgkIhJa3WMhhJVJ-16" value="是" style="text;html=1;resizable=0;points=[];align=center;verticalAlign=middle;labelBackgroundColor=#ffffff;" parent="LwwBDkgkIhJa3WMhhJVJ-14" vertex="1" connectable="0">
          <mxGeometry x="-0.175" y="-1" relative="1" as="geometry">
            <mxPoint as="offset"/>
          </mxGeometry>
        </mxCell>
        <mxCell id="Qdpe9cmsCWd7SJbPGSpJ-2" value="" style="edgeStyle=orthogonalEdgeStyle;rounded=0;orthogonalLoop=1;jettySize=auto;html=1;" edge="1" parent="1" source="LwwBDkgkIhJa3WMhhJVJ-10" target="Qdpe9cmsCWd7SJbPGSpJ-1">
          <mxGeometry relative="1" as="geometry"/>
        </mxCell>
        <mxCell id="Qdpe9cmsCWd7SJbPGSpJ-6" value="否" style="text;html=1;resizable=0;points=[];align=center;verticalAlign=middle;labelBackgroundColor=#ffffff;" vertex="1" connectable="0" parent="Qdpe9cmsCWd7SJbPGSpJ-2">
          <mxGeometry x="-0.175" relative="1" as="geometry">
            <mxPoint as="offset"/>
          </mxGeometry>
        </mxCell>
        <mxCell id="LwwBDkgkIhJa3WMhhJVJ-10" value="是否配置需要审核" style="strokeWidth=2;html=1;shape=mxgraph.flowchart.decision;whiteSpace=wrap;" parent="1" vertex="1">
          <mxGeometry x="260" y="850" width="100" height="100" as="geometry"/>
        </mxCell>
        <mxCell id="Qdpe9cmsCWd7SJbPGSpJ-4" style="edgeStyle=orthogonalEdgeStyle;rounded=0;orthogonalLoop=1;jettySize=auto;html=1;" edge="1" parent="1" source="Qdpe9cmsCWd7SJbPGSpJ-1" target="Qdpe9cmsCWd7SJbPGSpJ-3">
          <mxGeometry relative="1" as="geometry"/>
        </mxCell>
        <mxCell id="Qdpe9cmsCWd7SJbPGSpJ-5" value="是" style="text;html=1;resizable=0;points=[];align=center;verticalAlign=middle;labelBackgroundColor=#ffffff;" vertex="1" connectable="0" parent="Qdpe9cmsCWd7SJbPGSpJ-4">
          <mxGeometry x="-0.15" y="-2" relative="1" as="geometry">
            <mxPoint as="offset"/>
          </mxGeometry>
        </mxCell>
        <mxCell id="Qdpe9cmsCWd7SJbPGSpJ-8" style="edgeStyle=orthogonalEdgeStyle;rounded=0;orthogonalLoop=1;jettySize=auto;html=1;entryX=0.5;entryY=0;entryDx=0;entryDy=0;" edge="1" parent="1" source="Qdpe9cmsCWd7SJbPGSpJ-1" target="LwwBDkgkIhJa3WMhhJVJ-19">
          <mxGeometry relative="1" as="geometry"/>
        </mxCell>
        <mxCell id="Qdpe9cmsCWd7SJbPGSpJ-9" value="否" style="text;html=1;resizable=0;points=[];align=center;verticalAlign=middle;labelBackgroundColor=#ffffff;" vertex="1" connectable="0" parent="Qdpe9cmsCWd7SJbPGSpJ-8">
          <mxGeometry x="-0.2" y="1" relative="1" as="geometry">
            <mxPoint as="offset"/>
          </mxGeometry>
        </mxCell>
        <mxCell id="Qdpe9cmsCWd7SJbPGSpJ-1" value="是否是商户会员并且需要进件" style="strokeWidth=2;html=1;shape=mxgraph.flowchart.decision;whiteSpace=wrap;" vertex="1" parent="1">
          <mxGeometry x="260" y="1030" width="100" height="100" as="geometry"/>
        </mxCell>
        <mxCell id="Qdpe9cmsCWd7SJbPGSpJ-7" style="edgeStyle=orthogonalEdgeStyle;rounded=0;orthogonalLoop=1;jettySize=auto;html=1;entryX=0.5;entryY=0;entryDx=0;entryDy=0;entryPerimeter=0;" edge="1" parent="1" source="LwwBDkgkIhJa3WMhhJVJ-15" target="Qdpe9cmsCWd7SJbPGSpJ-1">
          <mxGeometry relative="1" as="geometry">
            <Array as="points">
              <mxPoint x="490" y="1010"/>
              <mxPoint x="310" y="1010"/>
            </Array>
          </mxGeometry>
        </mxCell>
        <mxCell id="LwwBDkgkIhJa3WMhhJVJ-15" value="运营人员在管理后台进行审核" style="rounded=1;whiteSpace=wrap;html=1;absoluteArcSize=1;arcSize=14;strokeWidth=2;" parent="1" vertex="1">
          <mxGeometry x="440" y="850" width="100" height="100" as="geometry"/>
        </mxCell>
        <mxCell id="LwwBDkgkIhJa3WMhhJVJ-19" value="等待接收个人开户结果通知" style="rounded=1;whiteSpace=wrap;html=1;absoluteArcSize=1;arcSize=14;strokeWidth=2;" parent="1" vertex="1">
          <mxGeometry x="260" y="1230" width="100" height="100" as="geometry"/>
        </mxCell>
        <mxCell id="Qdpe9cmsCWd7SJbPGSpJ-10" style="edgeStyle=orthogonalEdgeStyle;rounded=0;orthogonalLoop=1;jettySize=auto;html=1;entryX=1;entryY=0.42;entryDx=0;entryDy=0;entryPerimeter=0;" edge="1" parent="1" source="Qdpe9cmsCWd7SJbPGSpJ-3" target="LwwBDkgkIhJa3WMhhJVJ-19">
          <mxGeometry relative="1" as="geometry">
            <Array as="points">
              <mxPoint x="490" y="1272"/>
            </Array>
          </mxGeometry>
        </mxCell>
        <mxCell id="Qdpe9cmsCWd7SJbPGSpJ-3" value="进件人员进行审核" style="rounded=1;whiteSpace=wrap;html=1;absoluteArcSize=1;arcSize=14;strokeWidth=2;" vertex="1" parent="1">
          <mxGeometry x="440" y="1030" width="100" height="100" as="geometry"/>
        </mxCell>
        <mxCell id="iAgpnSeQ38nsZxshlyUb-3" style="edgeStyle=orthogonalEdgeStyle;rounded=0;orthogonalLoop=1;jettySize=auto;html=1;entryX=0;entryY=0.5;entryDx=0;entryDy=0;" edge="1" parent="1" source="iAgpnSeQ38nsZxshlyUb-1" target="LwwBDkgkIhJa3WMhhJVJ-8">
          <mxGeometry relative="1" as="geometry"/>
        </mxCell>
        <mxCell id="iAgpnSeQ38nsZxshlyUb-4" value="否" style="text;html=1;resizable=0;points=[];align=center;verticalAlign=middle;labelBackgroundColor=#ffffff;" vertex="1" connectable="0" parent="iAgpnSeQ38nsZxshlyUb-3">
          <mxGeometry x="-0.1636" y="-2" relative="1" as="geometry">
            <mxPoint as="offset"/>
          </mxGeometry>
        </mxCell>
        <mxCell id="iAgpnSeQ38nsZxshlyUb-5" style="edgeStyle=orthogonalEdgeStyle;rounded=0;orthogonalLoop=1;jettySize=auto;html=1;entryX=0.5;entryY=0;entryDx=0;entryDy=0;entryPerimeter=0;" edge="1" parent="1" source="iAgpnSeQ38nsZxshlyUb-1" target="LwwBDkgkIhJa3WMhhJVJ-10">
          <mxGeometry relative="1" as="geometry"/>
        </mxCell>
        <mxCell id="iAgpnSeQ38nsZxshlyUb-6" value="是" style="text;html=1;resizable=0;points=[];align=center;verticalAlign=middle;labelBackgroundColor=#ffffff;" vertex="1" connectable="0" parent="iAgpnSeQ38nsZxshlyUb-5">
          <mxGeometry x="-0.4435" y="-1" relative="1" as="geometry">
            <mxPoint as="offset"/>
          </mxGeometry>
        </mxCell>
        <mxCell id="iAgpnSeQ38nsZxshlyUb-1" value="是否三要素绑卡" style="strokeWidth=2;html=1;shape=mxgraph.flowchart.decision;whiteSpace=wrap;" vertex="1" parent="1">
          <mxGeometry x="260" y="635" width="100" height="100" as="geometry"/>
        </mxCell>
      </root>
    </mxGraphModel>
  </diagram>
  <diagram id="afDi7HYOYn75Juvx1Z-a" name="企业会员">
    <mxGraphModel dx="1999" dy="1769" grid="1" gridSize="10" guides="1" tooltips="1" connect="1" arrows="1" fold="1" page="1" pageScale="1" pageWidth="827" pageHeight="1169" math="0" shadow="0">
      <root>
        <mxCell id="NxBSOYPzbR3oFhZ4Jm8O-0"/>
        <mxCell id="NxBSOYPzbR3oFhZ4Jm8O-1" parent="NxBSOYPzbR3oFhZ4Jm8O-0"/>
        <mxCell id="NxBSOYPzbR3oFhZ4Jm8O-2" style="edgeStyle=orthogonalEdgeStyle;rounded=0;orthogonalLoop=1;jettySize=auto;html=1;entryX=0.5;entryY=0;entryDx=0;entryDy=0;entryPerimeter=0;" parent="NxBSOYPzbR3oFhZ4Jm8O-1" source="NxBSOYPzbR3oFhZ4Jm8O-3" target="NxBSOYPzbR3oFhZ4Jm8O-8" edge="1">
          <mxGeometry relative="1" as="geometry"/>
        </mxCell>
        <mxCell id="NxBSOYPzbR3oFhZ4Jm8O-3" value="调用企业会员开户接口" style="rounded=1;whiteSpace=wrap;html=1;absoluteArcSize=1;arcSize=14;strokeWidth=2;" parent="NxBSOYPzbR3oFhZ4Jm8O-1" vertex="1">
          <mxGeometry x="300" y="-100" width="100" height="100" as="geometry"/>
        </mxCell>
        <mxCell id="NxBSOYPzbR3oFhZ4Jm8O-4" style="edgeStyle=orthogonalEdgeStyle;rounded=0;orthogonalLoop=1;jettySize=auto;html=1;entryX=0;entryY=0.5;entryDx=0;entryDy=0;" parent="NxBSOYPzbR3oFhZ4Jm8O-1" source="NxBSOYPzbR3oFhZ4Jm8O-8" target="NxBSOYPzbR3oFhZ4Jm8O-10" edge="1">
          <mxGeometry relative="1" as="geometry"/>
        </mxCell>
        <mxCell id="NxBSOYPzbR3oFhZ4Jm8O-5" value="否" style="text;html=1;resizable=0;points=[];align=center;verticalAlign=middle;labelBackgroundColor=#ffffff;" parent="NxBSOYPzbR3oFhZ4Jm8O-4" vertex="1" connectable="0">
          <mxGeometry x="-0.0909" y="1" relative="1" as="geometry">
            <mxPoint as="offset"/>
          </mxGeometry>
        </mxCell>
        <mxCell id="NxBSOYPzbR3oFhZ4Jm8O-25" value="" style="edgeStyle=orthogonalEdgeStyle;rounded=0;orthogonalLoop=1;jettySize=auto;html=1;" parent="NxBSOYPzbR3oFhZ4Jm8O-1" source="NxBSOYPzbR3oFhZ4Jm8O-8" target="NxBSOYPzbR3oFhZ4Jm8O-24" edge="1">
          <mxGeometry relative="1" as="geometry"/>
        </mxCell>
        <mxCell id="NxBSOYPzbR3oFhZ4Jm8O-27" value="是" style="text;html=1;resizable=0;points=[];align=center;verticalAlign=middle;labelBackgroundColor=#ffffff;" parent="NxBSOYPzbR3oFhZ4Jm8O-25" vertex="1" connectable="0">
          <mxGeometry x="-0.25" y="1" relative="1" as="geometry">
            <mxPoint as="offset"/>
          </mxGeometry>
        </mxCell>
        <mxCell id="NxBSOYPzbR3oFhZ4Jm8O-8" value="是否配置手机号码无需验证" style="strokeWidth=2;html=1;shape=mxgraph.flowchart.decision;whiteSpace=wrap;" parent="NxBSOYPzbR3oFhZ4Jm8O-1" vertex="1">
          <mxGeometry x="300" y="90" width="100" height="100" as="geometry"/>
        </mxCell>
        <mxCell id="NxBSOYPzbR3oFhZ4Jm8O-26" style="edgeStyle=orthogonalEdgeStyle;rounded=0;orthogonalLoop=1;jettySize=auto;html=1;" parent="NxBSOYPzbR3oFhZ4Jm8O-1" source="NxBSOYPzbR3oFhZ4Jm8O-24" target="NxBSOYPzbR3oFhZ4Jm8O-12" edge="1">
          <mxGeometry relative="1" as="geometry"/>
        </mxCell>
        <mxCell id="NxBSOYPzbR3oFhZ4Jm8O-31" value="否" style="text;html=1;resizable=0;points=[];align=center;verticalAlign=middle;labelBackgroundColor=#ffffff;" parent="NxBSOYPzbR3oFhZ4Jm8O-26" vertex="1" connectable="0">
          <mxGeometry x="-0.04" y="1" relative="1" as="geometry">
            <mxPoint as="offset"/>
          </mxGeometry>
        </mxCell>
        <mxCell id="NxBSOYPzbR3oFhZ4Jm8O-29" style="edgeStyle=orthogonalEdgeStyle;rounded=0;orthogonalLoop=1;jettySize=auto;html=1;entryX=0;entryY=0.5;entryDx=0;entryDy=0;" parent="NxBSOYPzbR3oFhZ4Jm8O-1" source="NxBSOYPzbR3oFhZ4Jm8O-24" target="NxBSOYPzbR3oFhZ4Jm8O-28" edge="1">
          <mxGeometry relative="1" as="geometry"/>
        </mxCell>
        <mxCell id="NxBSOYPzbR3oFhZ4Jm8O-30" value="是" style="text;html=1;resizable=0;points=[];align=center;verticalAlign=middle;labelBackgroundColor=#ffffff;" parent="NxBSOYPzbR3oFhZ4Jm8O-29" vertex="1" connectable="0">
          <mxGeometry x="-0.02" y="1" relative="1" as="geometry">
            <mxPoint as="offset"/>
          </mxGeometry>
        </mxCell>
        <mxCell id="NxBSOYPzbR3oFhZ4Jm8O-24" value="是否是对公绑卡" style="strokeWidth=2;html=1;shape=mxgraph.flowchart.decision;whiteSpace=wrap;" parent="NxBSOYPzbR3oFhZ4Jm8O-1" vertex="1">
          <mxGeometry x="300" y="270" width="100" height="100" as="geometry"/>
        </mxCell>
        <mxCell id="NxBSOYPzbR3oFhZ4Jm8O-9" style="edgeStyle=orthogonalEdgeStyle;rounded=0;orthogonalLoop=1;jettySize=auto;html=1;entryX=0.5;entryY=0;entryDx=0;entryDy=0;entryPerimeter=0;" parent="NxBSOYPzbR3oFhZ4Jm8O-1" source="NxBSOYPzbR3oFhZ4Jm8O-10" edge="1" target="NxBSOYPzbR3oFhZ4Jm8O-24">
          <mxGeometry relative="1" as="geometry">
            <Array as="points">
              <mxPoint x="560" y="250"/>
              <mxPoint x="350" y="250"/>
            </Array>
            <mxPoint x="350" y="250" as="targetPoint"/>
          </mxGeometry>
        </mxCell>
        <mxCell id="NxBSOYPzbR3oFhZ4Jm8O-10" value="调用会员开户认证接口" style="rounded=1;whiteSpace=wrap;html=1;absoluteArcSize=1;arcSize=14;strokeWidth=2;" parent="NxBSOYPzbR3oFhZ4Jm8O-1" vertex="1">
          <mxGeometry x="510" y="90" width="100" height="100" as="geometry"/>
        </mxCell>
        <mxCell id="n9a_lID8I-k6y1ltIH6--1" style="edgeStyle=orthogonalEdgeStyle;rounded=0;orthogonalLoop=1;jettySize=auto;html=1;" edge="1" parent="NxBSOYPzbR3oFhZ4Jm8O-1" source="NxBSOYPzbR3oFhZ4Jm8O-12" target="n9a_lID8I-k6y1ltIH6--0">
          <mxGeometry relative="1" as="geometry"/>
        </mxCell>
        <mxCell id="NxBSOYPzbR3oFhZ4Jm8O-12" value="调用绑定银行卡_个人接口" style="rounded=1;whiteSpace=wrap;html=1;absoluteArcSize=1;arcSize=14;strokeWidth=2;" parent="NxBSOYPzbR3oFhZ4Jm8O-1" vertex="1">
          <mxGeometry x="100" y="270" width="100" height="100" as="geometry"/>
        </mxCell>
        <mxCell id="NxBSOYPzbR3oFhZ4Jm8O-13" style="edgeStyle=orthogonalEdgeStyle;rounded=0;orthogonalLoop=1;jettySize=auto;html=1;" parent="NxBSOYPzbR3oFhZ4Jm8O-1" source="NxBSOYPzbR3oFhZ4Jm8O-14" target="NxBSOYPzbR3oFhZ4Jm8O-19" edge="1">
          <mxGeometry relative="1" as="geometry">
            <Array as="points">
              <mxPoint x="-50" y="630"/>
              <mxPoint x="340" y="630"/>
            </Array>
          </mxGeometry>
        </mxCell>
        <mxCell id="NxBSOYPzbR3oFhZ4Jm8O-14" value="调用确认绑定银行卡_个人接口" style="rounded=1;whiteSpace=wrap;html=1;absoluteArcSize=1;arcSize=14;strokeWidth=2;" parent="NxBSOYPzbR3oFhZ4Jm8O-1" vertex="1">
          <mxGeometry x="-100" y="450" width="100" height="100" as="geometry"/>
        </mxCell>
        <mxCell id="NxBSOYPzbR3oFhZ4Jm8O-15" value="" style="edgeStyle=orthogonalEdgeStyle;rounded=0;orthogonalLoop=1;jettySize=auto;html=1;" parent="NxBSOYPzbR3oFhZ4Jm8O-1" source="NxBSOYPzbR3oFhZ4Jm8O-19" edge="1">
          <mxGeometry relative="1" as="geometry">
            <mxPoint x="470" y="780" as="targetPoint"/>
          </mxGeometry>
        </mxCell>
        <mxCell id="NxBSOYPzbR3oFhZ4Jm8O-16" value="是" style="text;html=1;resizable=0;points=[];align=center;verticalAlign=middle;labelBackgroundColor=#ffffff;" parent="NxBSOYPzbR3oFhZ4Jm8O-15" vertex="1" connectable="0">
          <mxGeometry x="-0.175" y="-1" relative="1" as="geometry">
            <mxPoint as="offset"/>
          </mxGeometry>
        </mxCell>
        <mxCell id="NxBSOYPzbR3oFhZ4Jm8O-17" style="edgeStyle=orthogonalEdgeStyle;rounded=0;orthogonalLoop=1;jettySize=auto;html=1;entryX=0.5;entryY=0;entryDx=0;entryDy=0;entryPerimeter=0;" parent="NxBSOYPzbR3oFhZ4Jm8O-1" source="NxBSOYPzbR3oFhZ4Jm8O-19" target="BfyMKSCeKeO-9gGqPY-W-0" edge="1">
          <mxGeometry relative="1" as="geometry"/>
        </mxCell>
        <mxCell id="NxBSOYPzbR3oFhZ4Jm8O-18" value="否" style="text;html=1;resizable=0;points=[];align=center;verticalAlign=middle;labelBackgroundColor=#ffffff;" parent="NxBSOYPzbR3oFhZ4Jm8O-17" vertex="1" connectable="0">
          <mxGeometry x="-0.1515" y="1" relative="1" as="geometry">
            <mxPoint as="offset"/>
          </mxGeometry>
        </mxCell>
        <mxCell id="NxBSOYPzbR3oFhZ4Jm8O-19" value="是否配置需要审核" style="strokeWidth=2;html=1;shape=mxgraph.flowchart.decision;whiteSpace=wrap;" parent="NxBSOYPzbR3oFhZ4Jm8O-1" vertex="1">
          <mxGeometry x="290" y="730" width="100" height="100" as="geometry"/>
        </mxCell>
        <mxCell id="NxBSOYPzbR3oFhZ4Jm8O-20" style="edgeStyle=orthogonalEdgeStyle;rounded=0;orthogonalLoop=1;jettySize=auto;html=1;entryX=0.5;entryY=0;entryDx=0;entryDy=0;entryPerimeter=0;" parent="NxBSOYPzbR3oFhZ4Jm8O-1" source="NxBSOYPzbR3oFhZ4Jm8O-21" target="BfyMKSCeKeO-9gGqPY-W-0" edge="1">
          <mxGeometry relative="1" as="geometry">
            <Array as="points">
              <mxPoint x="520" y="910"/>
              <mxPoint x="340" y="910"/>
            </Array>
          </mxGeometry>
        </mxCell>
        <mxCell id="NxBSOYPzbR3oFhZ4Jm8O-21" value="运营人员在管理后台进行审核" style="rounded=1;whiteSpace=wrap;html=1;absoluteArcSize=1;arcSize=14;strokeWidth=2;" parent="NxBSOYPzbR3oFhZ4Jm8O-1" vertex="1">
          <mxGeometry x="470" y="730" width="100" height="100" as="geometry"/>
        </mxCell>
        <mxCell id="NxBSOYPzbR3oFhZ4Jm8O-22" value="等待接收企业开户结果通知" style="rounded=1;whiteSpace=wrap;html=1;absoluteArcSize=1;arcSize=14;strokeWidth=2;" parent="NxBSOYPzbR3oFhZ4Jm8O-1" vertex="1">
          <mxGeometry x="290" y="1110" width="100" height="100" as="geometry"/>
        </mxCell>
        <mxCell id="NxBSOYPzbR3oFhZ4Jm8O-33" value="" style="edgeStyle=orthogonalEdgeStyle;rounded=0;orthogonalLoop=1;jettySize=auto;html=1;entryX=0.5;entryY=0;entryDx=0;entryDy=0;entryPerimeter=0;" parent="NxBSOYPzbR3oFhZ4Jm8O-1" source="NxBSOYPzbR3oFhZ4Jm8O-28" target="NxBSOYPzbR3oFhZ4Jm8O-19" edge="1">
          <mxGeometry relative="1" as="geometry">
            <mxPoint x="550" y="450" as="targetPoint"/>
            <Array as="points">
              <mxPoint x="550" y="630"/>
              <mxPoint x="340" y="630"/>
            </Array>
          </mxGeometry>
        </mxCell>
        <mxCell id="NxBSOYPzbR3oFhZ4Jm8O-28" value="调用首笔支付认证_企业接口" style="rounded=1;whiteSpace=wrap;html=1;absoluteArcSize=1;arcSize=14;strokeWidth=2;" parent="NxBSOYPzbR3oFhZ4Jm8O-1" vertex="1">
          <mxGeometry x="500" y="270" width="100" height="100" as="geometry"/>
        </mxCell>
        <mxCell id="n9a_lID8I-k6y1ltIH6--2" style="edgeStyle=orthogonalEdgeStyle;rounded=0;orthogonalLoop=1;jettySize=auto;html=1;entryX=1;entryY=0.5;entryDx=0;entryDy=0;" edge="1" parent="NxBSOYPzbR3oFhZ4Jm8O-1" source="n9a_lID8I-k6y1ltIH6--0" target="NxBSOYPzbR3oFhZ4Jm8O-14">
          <mxGeometry relative="1" as="geometry"/>
        </mxCell>
        <mxCell id="n9a_lID8I-k6y1ltIH6--3" value="否" style="text;html=1;resizable=0;points=[];align=center;verticalAlign=middle;labelBackgroundColor=#ffffff;" vertex="1" connectable="0" parent="n9a_lID8I-k6y1ltIH6--2">
          <mxGeometry x="-0.02" y="-1" relative="1" as="geometry">
            <mxPoint as="offset"/>
          </mxGeometry>
        </mxCell>
        <mxCell id="n9a_lID8I-k6y1ltIH6--4" style="edgeStyle=orthogonalEdgeStyle;rounded=0;orthogonalLoop=1;jettySize=auto;html=1;entryX=0.5;entryY=0;entryDx=0;entryDy=0;entryPerimeter=0;" edge="1" parent="NxBSOYPzbR3oFhZ4Jm8O-1" source="n9a_lID8I-k6y1ltIH6--0" target="NxBSOYPzbR3oFhZ4Jm8O-19">
          <mxGeometry relative="1" as="geometry">
            <mxPoint x="340" y="840" as="targetPoint"/>
            <Array as="points">
              <mxPoint x="150" y="630"/>
              <mxPoint x="340" y="630"/>
            </Array>
          </mxGeometry>
        </mxCell>
        <mxCell id="n9a_lID8I-k6y1ltIH6--5" value="否" style="text;html=1;resizable=0;points=[];align=center;verticalAlign=middle;labelBackgroundColor=#ffffff;" vertex="1" connectable="0" parent="n9a_lID8I-k6y1ltIH6--4">
          <mxGeometry x="-0.7667" relative="1" as="geometry">
            <mxPoint as="offset"/>
          </mxGeometry>
        </mxCell>
        <mxCell id="n9a_lID8I-k6y1ltIH6--0" value="是否是三要素绑卡" style="strokeWidth=2;html=1;shape=mxgraph.flowchart.decision;whiteSpace=wrap;" vertex="1" parent="NxBSOYPzbR3oFhZ4Jm8O-1">
          <mxGeometry x="100" y="450" width="100" height="100" as="geometry"/>
        </mxCell>
        <mxCell id="rhl6gnpdfg4aoPMaHZXe-0" style="edgeStyle=orthogonalEdgeStyle;rounded=0;orthogonalLoop=1;jettySize=auto;html=1;entryX=0.5;entryY=0;entryDx=0;entryDy=0;" edge="1" parent="NxBSOYPzbR3oFhZ4Jm8O-1" source="BfyMKSCeKeO-9gGqPY-W-0" target="NxBSOYPzbR3oFhZ4Jm8O-22">
          <mxGeometry relative="1" as="geometry"/>
        </mxCell>
        <mxCell id="rhl6gnpdfg4aoPMaHZXe-1" value="否" style="text;html=1;resizable=0;points=[];align=center;verticalAlign=middle;labelBackgroundColor=#ffffff;" vertex="1" connectable="0" parent="rhl6gnpdfg4aoPMaHZXe-0">
          <mxGeometry x="-0.375" y="-1" relative="1" as="geometry">
            <mxPoint as="offset"/>
          </mxGeometry>
        </mxCell>
        <mxCell id="oJnYgfDkLoGl0_wDTgHt-1" style="edgeStyle=orthogonalEdgeStyle;rounded=0;orthogonalLoop=1;jettySize=auto;html=1;entryX=0;entryY=0.5;entryDx=0;entryDy=0;" edge="1" parent="NxBSOYPzbR3oFhZ4Jm8O-1" source="BfyMKSCeKeO-9gGqPY-W-0" target="oJnYgfDkLoGl0_wDTgHt-0">
          <mxGeometry relative="1" as="geometry"/>
        </mxCell>
        <mxCell id="BfyMKSCeKeO-9gGqPY-W-0" value="是否是商户会员并且需要进件" style="strokeWidth=2;html=1;shape=mxgraph.flowchart.decision;whiteSpace=wrap;" vertex="1" parent="NxBSOYPzbR3oFhZ4Jm8O-1">
          <mxGeometry x="290" y="930" width="100" height="100" as="geometry"/>
        </mxCell>
        <mxCell id="oJnYgfDkLoGl0_wDTgHt-2" style="edgeStyle=orthogonalEdgeStyle;rounded=0;orthogonalLoop=1;jettySize=auto;html=1;entryX=1;entryY=0.5;entryDx=0;entryDy=0;" edge="1" parent="NxBSOYPzbR3oFhZ4Jm8O-1" source="oJnYgfDkLoGl0_wDTgHt-0" target="NxBSOYPzbR3oFhZ4Jm8O-22">
          <mxGeometry relative="1" as="geometry">
            <Array as="points">
              <mxPoint x="510" y="1160"/>
            </Array>
          </mxGeometry>
        </mxCell>
        <mxCell id="oJnYgfDkLoGl0_wDTgHt-0" value="进件人员进行审核" style="rounded=1;whiteSpace=wrap;html=1;absoluteArcSize=1;arcSize=14;strokeWidth=2;" vertex="1" parent="NxBSOYPzbR3oFhZ4Jm8O-1">
          <mxGeometry x="460" y="930" width="100" height="100" as="geometry"/>
        </mxCell>
      </root>
    </mxGraphModel>
  </diagram>
  <diagram id="jgGajqSOHff6ggjkDKV2" name="个体工商户">
    <mxGraphModel dx="1172" dy="600" grid="1" gridSize="10" guides="1" tooltips="1" connect="1" arrows="1" fold="1" page="1" pageScale="1" pageWidth="827" pageHeight="1169" math="0" shadow="0">
      <root>
        <mxCell id="SpXOcvaZbP8VH0NsQFtL-0"/>
        <mxCell id="SpXOcvaZbP8VH0NsQFtL-1" parent="SpXOcvaZbP8VH0NsQFtL-0"/>
        <mxCell id="SpXOcvaZbP8VH0NsQFtL-2" style="edgeStyle=orthogonalEdgeStyle;rounded=0;orthogonalLoop=1;jettySize=auto;html=1;entryX=0.5;entryY=0;entryDx=0;entryDy=0;entryPerimeter=0;" edge="1" parent="SpXOcvaZbP8VH0NsQFtL-1" source="SpXOcvaZbP8VH0NsQFtL-3" target="SpXOcvaZbP8VH0NsQFtL-8">
          <mxGeometry relative="1" as="geometry"/>
        </mxCell>
        <mxCell id="SpXOcvaZbP8VH0NsQFtL-3" value="调用个体工商户会员开户接口" style="rounded=1;whiteSpace=wrap;html=1;absoluteArcSize=1;arcSize=14;strokeWidth=2;" vertex="1" parent="SpXOcvaZbP8VH0NsQFtL-1">
          <mxGeometry x="345" y="20" width="100" height="100" as="geometry"/>
        </mxCell>
        <mxCell id="SpXOcvaZbP8VH0NsQFtL-4" style="edgeStyle=orthogonalEdgeStyle;rounded=0;orthogonalLoop=1;jettySize=auto;html=1;entryX=0;entryY=0.5;entryDx=0;entryDy=0;" edge="1" parent="SpXOcvaZbP8VH0NsQFtL-1" source="SpXOcvaZbP8VH0NsQFtL-8" target="SpXOcvaZbP8VH0NsQFtL-15">
          <mxGeometry relative="1" as="geometry"/>
        </mxCell>
        <mxCell id="SpXOcvaZbP8VH0NsQFtL-5" value="否" style="text;html=1;resizable=0;points=[];align=center;verticalAlign=middle;labelBackgroundColor=#ffffff;" vertex="1" connectable="0" parent="SpXOcvaZbP8VH0NsQFtL-4">
          <mxGeometry x="-0.0909" y="1" relative="1" as="geometry">
            <mxPoint as="offset"/>
          </mxGeometry>
        </mxCell>
        <mxCell id="SpXOcvaZbP8VH0NsQFtL-6" value="" style="edgeStyle=orthogonalEdgeStyle;rounded=0;orthogonalLoop=1;jettySize=auto;html=1;" edge="1" parent="SpXOcvaZbP8VH0NsQFtL-1" source="SpXOcvaZbP8VH0NsQFtL-8" target="SpXOcvaZbP8VH0NsQFtL-13">
          <mxGeometry relative="1" as="geometry"/>
        </mxCell>
        <mxCell id="SpXOcvaZbP8VH0NsQFtL-7" value="是" style="text;html=1;resizable=0;points=[];align=center;verticalAlign=middle;labelBackgroundColor=#ffffff;" vertex="1" connectable="0" parent="SpXOcvaZbP8VH0NsQFtL-6">
          <mxGeometry x="-0.25" y="1" relative="1" as="geometry">
            <mxPoint as="offset"/>
          </mxGeometry>
        </mxCell>
        <mxCell id="SpXOcvaZbP8VH0NsQFtL-8" value="是否配置手机号码无需验证" style="strokeWidth=2;html=1;shape=mxgraph.flowchart.decision;whiteSpace=wrap;" vertex="1" parent="SpXOcvaZbP8VH0NsQFtL-1">
          <mxGeometry x="345" y="210" width="100" height="100" as="geometry"/>
        </mxCell>
        <mxCell id="SpXOcvaZbP8VH0NsQFtL-9" style="edgeStyle=orthogonalEdgeStyle;rounded=0;orthogonalLoop=1;jettySize=auto;html=1;" edge="1" parent="SpXOcvaZbP8VH0NsQFtL-1" source="SpXOcvaZbP8VH0NsQFtL-13" target="SpXOcvaZbP8VH0NsQFtL-17">
          <mxGeometry relative="1" as="geometry"/>
        </mxCell>
        <mxCell id="SpXOcvaZbP8VH0NsQFtL-10" value="否" style="text;html=1;resizable=0;points=[];align=center;verticalAlign=middle;labelBackgroundColor=#ffffff;" vertex="1" connectable="0" parent="SpXOcvaZbP8VH0NsQFtL-9">
          <mxGeometry x="-0.04" y="1" relative="1" as="geometry">
            <mxPoint as="offset"/>
          </mxGeometry>
        </mxCell>
        <mxCell id="SpXOcvaZbP8VH0NsQFtL-11" style="edgeStyle=orthogonalEdgeStyle;rounded=0;orthogonalLoop=1;jettySize=auto;html=1;entryX=0.5;entryY=0;entryDx=0;entryDy=0;" edge="1" parent="SpXOcvaZbP8VH0NsQFtL-1" source="SpXOcvaZbP8VH0NsQFtL-13" target="SpXOcvaZbP8VH0NsQFtL-29">
          <mxGeometry relative="1" as="geometry"/>
        </mxCell>
        <mxCell id="SpXOcvaZbP8VH0NsQFtL-12" value="是" style="text;html=1;resizable=0;points=[];align=center;verticalAlign=middle;labelBackgroundColor=#ffffff;" vertex="1" connectable="0" parent="SpXOcvaZbP8VH0NsQFtL-11">
          <mxGeometry x="-0.02" y="1" relative="1" as="geometry">
            <mxPoint as="offset"/>
          </mxGeometry>
        </mxCell>
        <mxCell id="SpXOcvaZbP8VH0NsQFtL-13" value="是否是对公绑卡" style="strokeWidth=2;html=1;shape=mxgraph.flowchart.decision;whiteSpace=wrap;" vertex="1" parent="SpXOcvaZbP8VH0NsQFtL-1">
          <mxGeometry x="345" y="390" width="100" height="100" as="geometry"/>
        </mxCell>
        <mxCell id="SpXOcvaZbP8VH0NsQFtL-14" style="edgeStyle=orthogonalEdgeStyle;rounded=0;orthogonalLoop=1;jettySize=auto;html=1;" edge="1" parent="SpXOcvaZbP8VH0NsQFtL-1" source="SpXOcvaZbP8VH0NsQFtL-15">
          <mxGeometry relative="1" as="geometry">
            <Array as="points">
              <mxPoint x="605" y="370"/>
              <mxPoint x="395" y="370"/>
            </Array>
            <mxPoint x="395" y="370" as="targetPoint"/>
          </mxGeometry>
        </mxCell>
        <mxCell id="SpXOcvaZbP8VH0NsQFtL-15" value="调用会员开户认证接口" style="rounded=1;whiteSpace=wrap;html=1;absoluteArcSize=1;arcSize=14;strokeWidth=2;" vertex="1" parent="SpXOcvaZbP8VH0NsQFtL-1">
          <mxGeometry x="555" y="210" width="100" height="100" as="geometry"/>
        </mxCell>
        <mxCell id="SpXOcvaZbP8VH0NsQFtL-16" style="edgeStyle=orthogonalEdgeStyle;rounded=0;orthogonalLoop=1;jettySize=auto;html=1;entryX=0.5;entryY=0;entryDx=0;entryDy=0;" edge="1" parent="SpXOcvaZbP8VH0NsQFtL-1" source="SpXOcvaZbP8VH0NsQFtL-17" target="SpXOcvaZbP8VH0NsQFtL-19">
          <mxGeometry relative="1" as="geometry"/>
        </mxCell>
        <mxCell id="SpXOcvaZbP8VH0NsQFtL-17" value="调用绑定银行卡_个人接口" style="rounded=1;whiteSpace=wrap;html=1;absoluteArcSize=1;arcSize=14;strokeWidth=2;" vertex="1" parent="SpXOcvaZbP8VH0NsQFtL-1">
          <mxGeometry x="145" y="390" width="100" height="100" as="geometry"/>
        </mxCell>
        <mxCell id="SpXOcvaZbP8VH0NsQFtL-18" style="edgeStyle=orthogonalEdgeStyle;rounded=0;orthogonalLoop=1;jettySize=auto;html=1;" edge="1" parent="SpXOcvaZbP8VH0NsQFtL-1" source="SpXOcvaZbP8VH0NsQFtL-19" target="SpXOcvaZbP8VH0NsQFtL-24">
          <mxGeometry relative="1" as="geometry"/>
        </mxCell>
        <mxCell id="SpXOcvaZbP8VH0NsQFtL-19" value="调用确认绑定银行卡_个人接口" style="rounded=1;whiteSpace=wrap;html=1;absoluteArcSize=1;arcSize=14;strokeWidth=2;" vertex="1" parent="SpXOcvaZbP8VH0NsQFtL-1">
          <mxGeometry x="145" y="610" width="100" height="100" as="geometry"/>
        </mxCell>
        <mxCell id="SpXOcvaZbP8VH0NsQFtL-20" value="" style="edgeStyle=orthogonalEdgeStyle;rounded=0;orthogonalLoop=1;jettySize=auto;html=1;" edge="1" parent="SpXOcvaZbP8VH0NsQFtL-1" source="SpXOcvaZbP8VH0NsQFtL-24">
          <mxGeometry relative="1" as="geometry">
            <mxPoint x="515" y="770" as="targetPoint"/>
          </mxGeometry>
        </mxCell>
        <mxCell id="SpXOcvaZbP8VH0NsQFtL-21" value="是" style="text;html=1;resizable=0;points=[];align=center;verticalAlign=middle;labelBackgroundColor=#ffffff;" vertex="1" connectable="0" parent="SpXOcvaZbP8VH0NsQFtL-20">
          <mxGeometry x="-0.175" y="-1" relative="1" as="geometry">
            <mxPoint as="offset"/>
          </mxGeometry>
        </mxCell>
        <mxCell id="SpXOcvaZbP8VH0NsQFtL-22" style="edgeStyle=orthogonalEdgeStyle;rounded=0;orthogonalLoop=1;jettySize=auto;html=1;" edge="1" parent="SpXOcvaZbP8VH0NsQFtL-1" source="SpXOcvaZbP8VH0NsQFtL-24" target="SpXOcvaZbP8VH0NsQFtL-27">
          <mxGeometry relative="1" as="geometry"/>
        </mxCell>
        <mxCell id="SpXOcvaZbP8VH0NsQFtL-23" value="否" style="text;html=1;resizable=0;points=[];align=center;verticalAlign=middle;labelBackgroundColor=#ffffff;" vertex="1" connectable="0" parent="SpXOcvaZbP8VH0NsQFtL-22">
          <mxGeometry x="-0.1515" y="1" relative="1" as="geometry">
            <mxPoint as="offset"/>
          </mxGeometry>
        </mxCell>
        <mxCell id="SpXOcvaZbP8VH0NsQFtL-24" value="是否配置会员开户是否需要审核" style="strokeWidth=2;html=1;shape=mxgraph.flowchart.decision;whiteSpace=wrap;" vertex="1" parent="SpXOcvaZbP8VH0NsQFtL-1">
          <mxGeometry x="335" y="720" width="100" height="100" as="geometry"/>
        </mxCell>
        <mxCell id="SpXOcvaZbP8VH0NsQFtL-25" style="edgeStyle=orthogonalEdgeStyle;rounded=0;orthogonalLoop=1;jettySize=auto;html=1;entryX=1;entryY=0.5;entryDx=0;entryDy=0;" edge="1" parent="SpXOcvaZbP8VH0NsQFtL-1" source="SpXOcvaZbP8VH0NsQFtL-26" target="SpXOcvaZbP8VH0NsQFtL-27">
          <mxGeometry relative="1" as="geometry">
            <Array as="points">
              <mxPoint x="565" y="969"/>
            </Array>
          </mxGeometry>
        </mxCell>
        <mxCell id="SpXOcvaZbP8VH0NsQFtL-26" value="运营人员在管理后台进行审核" style="rounded=1;whiteSpace=wrap;html=1;absoluteArcSize=1;arcSize=14;strokeWidth=2;" vertex="1" parent="SpXOcvaZbP8VH0NsQFtL-1">
          <mxGeometry x="515" y="720" width="100" height="100" as="geometry"/>
        </mxCell>
        <mxCell id="SpXOcvaZbP8VH0NsQFtL-27" value="等待接收个体工商户开户结果通知" style="rounded=1;whiteSpace=wrap;html=1;absoluteArcSize=1;arcSize=14;strokeWidth=2;" vertex="1" parent="SpXOcvaZbP8VH0NsQFtL-1">
          <mxGeometry x="335" y="919" width="100" height="100" as="geometry"/>
        </mxCell>
        <mxCell id="SpXOcvaZbP8VH0NsQFtL-28" value="" style="edgeStyle=orthogonalEdgeStyle;rounded=0;orthogonalLoop=1;jettySize=auto;html=1;entryX=0.5;entryY=0;entryDx=0;entryDy=0;entryPerimeter=0;" edge="1" parent="SpXOcvaZbP8VH0NsQFtL-1" source="SpXOcvaZbP8VH0NsQFtL-29" target="SpXOcvaZbP8VH0NsQFtL-24">
          <mxGeometry relative="1" as="geometry">
            <mxPoint x="595" y="570" as="targetPoint"/>
            <Array as="points">
              <mxPoint x="595" y="660"/>
              <mxPoint x="385" y="660"/>
            </Array>
          </mxGeometry>
        </mxCell>
        <mxCell id="SpXOcvaZbP8VH0NsQFtL-29" value="调用首笔支付认证_企业接口" style="rounded=1;whiteSpace=wrap;html=1;absoluteArcSize=1;arcSize=14;strokeWidth=2;" vertex="1" parent="SpXOcvaZbP8VH0NsQFtL-1">
          <mxGeometry x="545" y="500" width="100" height="100" as="geometry"/>
        </mxCell>
      </root>
    </mxGraphModel>
  </diagram>
</mxfile>
